<mxfile host="Electron" agent="Mozilla/5.0 (Windows NT 10.0; Win64; x64) AppleWebKit/537.36 (KHTML, like Gecko) draw.io/26.0.9 Chrome/128.0.6613.186 Electron/32.2.5 Safari/537.36" version="26.0.9">
  <diagram name="Página-1" id="2YeoqqiCotA2n2y8bvAu">
    <mxGraphModel dx="724" dy="428" grid="1" gridSize="10" guides="1" tooltips="1" connect="1" arrows="1" fold="1" page="1" pageScale="1" pageWidth="827" pageHeight="1169" math="0" shadow="0">
      <root>
        <mxCell id="0" />
        <mxCell id="1" parent="0" />
        <mxCell id="l0MaPMt1qdS6hLQ1h6Lj-1" value="" style="endArrow=none;html=1;rounded=0;fillColor=#dae8fc;strokeColor=#6c8ebf;" parent="1" edge="1">
          <mxGeometry width="50" height="50" relative="1" as="geometry">
            <mxPoint x="279.5" y="380" as="sourcePoint" />
            <mxPoint x="280" y="50" as="targetPoint" />
          </mxGeometry>
        </mxCell>
        <mxCell id="l0MaPMt1qdS6hLQ1h6Lj-2" value="" style="endArrow=none;html=1;rounded=0;fillColor=#dae8fc;strokeColor=#6c8ebf;" parent="1" edge="1">
          <mxGeometry width="50" height="50" relative="1" as="geometry">
            <mxPoint x="257.5" y="360" as="sourcePoint" />
            <mxPoint x="637.5" y="360" as="targetPoint" />
          </mxGeometry>
        </mxCell>
        <mxCell id="l0MaPMt1qdS6hLQ1h6Lj-4" value="&lt;span style=&quot;font-size: 9px; text-wrap: nowrap;&quot;&gt;Esboço do artefacto físico a construir&lt;/span&gt;" style="text;html=1;align=center;verticalAlign=middle;whiteSpace=wrap;rounded=0;fontFamily=Comic Sans MS;" parent="1" vertex="1">
          <mxGeometry x="108" y="270" width="160" height="20" as="geometry" />
        </mxCell>
        <mxCell id="l0MaPMt1qdS6hLQ1h6Lj-5" value="&lt;span style=&quot;font-size: 9px; text-wrap: nowrap;&quot;&gt;Diagramas de circuitos necessários&lt;/span&gt;" style="text;html=1;align=center;verticalAlign=middle;whiteSpace=wrap;rounded=0;fontFamily=Comic Sans MS;" parent="1" vertex="1">
          <mxGeometry x="119" y="240" width="150" height="20" as="geometry" />
        </mxCell>
        <mxCell id="l0MaPMt1qdS6hLQ1h6Lj-6" value="&lt;span style=&quot;font-size: 9px; text-wrap: nowrap;&quot;&gt;Pesquisa de projetos relacionados&lt;/span&gt;" style="text;html=1;align=center;verticalAlign=middle;whiteSpace=wrap;rounded=0;fontFamily=Comic Sans MS;" parent="1" vertex="1">
          <mxGeometry x="117.5" y="330" width="160" height="20" as="geometry" />
        </mxCell>
        <mxCell id="l0MaPMt1qdS6hLQ1h6Lj-7" value="&lt;span style=&quot;font-size: 9px; text-wrap: nowrap;&quot;&gt;Teste de comunicação HTTP&lt;/span&gt;" style="text;html=1;align=center;verticalAlign=middle;whiteSpace=wrap;rounded=0;fontFamily=Comic Sans MS;" parent="1" vertex="1">
          <mxGeometry x="129" y="210" width="160" height="20" as="geometry" />
        </mxCell>
        <mxCell id="l0MaPMt1qdS6hLQ1h6Lj-8" value="&lt;span style=&quot;font-size: 9px; text-wrap: nowrap;&quot;&gt;Teste de controlo remoto MQTT com Node-Red&lt;/span&gt;" style="text;html=1;align=center;verticalAlign=middle;whiteSpace=wrap;rounded=0;fontFamily=Comic Sans MS;" parent="1" vertex="1">
          <mxGeometry x="61" y="180" width="215" height="20" as="geometry" />
        </mxCell>
        <mxCell id="l0MaPMt1qdS6hLQ1h6Lj-9" value="&lt;span style=&quot;font-size: 9px; text-wrap: nowrap;&quot;&gt;Modelo de dados&lt;/span&gt;" style="text;html=1;align=center;verticalAlign=middle;whiteSpace=wrap;rounded=0;fontFamily=Comic Sans MS;" parent="1" vertex="1">
          <mxGeometry x="189" y="120" width="90" height="20" as="geometry" />
        </mxCell>
        <mxCell id="l0MaPMt1qdS6hLQ1h6Lj-10" value="&lt;span style=&quot;font-size: 9px; text-wrap: nowrap;&quot;&gt;Arquitetura do sistema&lt;/span&gt;" style="text;html=1;align=center;verticalAlign=middle;whiteSpace=wrap;rounded=0;fontFamily=Comic Sans MS;" parent="1" vertex="1">
          <mxGeometry x="165" y="150" width="110" height="20" as="geometry" />
        </mxCell>
        <mxCell id="l0MaPMt1qdS6hLQ1h6Lj-11" value="&lt;span style=&quot;font-size: 9px; text-wrap: nowrap;&quot;&gt;Levantamento de&amp;nbsp;&lt;/span&gt;&lt;span style=&quot;font-size: 9px; text-wrap: nowrap;&quot;&gt;requisitos&amp;nbsp;&lt;/span&gt;" style="text;html=1;align=center;verticalAlign=middle;whiteSpace=wrap;rounded=0;fontFamily=Comic Sans MS;" parent="1" vertex="1">
          <mxGeometry x="147.5" y="300" width="130" height="20" as="geometry" />
        </mxCell>
        <mxCell id="l0MaPMt1qdS6hLQ1h6Lj-12" value="&lt;span style=&quot;text-wrap: nowrap;&quot;&gt;Semana 1&lt;/span&gt;" style="text;html=1;align=center;verticalAlign=middle;whiteSpace=wrap;rounded=0;fontFamily=Comic Sans MS;fontSize=8;" parent="1" vertex="1">
          <mxGeometry x="317" y="364.23" width="47.5" height="20" as="geometry" />
        </mxCell>
        <mxCell id="l0MaPMt1qdS6hLQ1h6Lj-13" value="" style="endArrow=none;dashed=1;html=1;rounded=0;exitX=0.47;exitY=-0.002;exitDx=0;exitDy=0;fontSize=9;strokeWidth=0.5;strokeColor=#6c8ebf;fillColor=#dae8fc;exitPerimeter=0;" parent="1" edge="1">
          <mxGeometry width="50" height="50" relative="1" as="geometry">
            <mxPoint x="340.00499999999994" y="369.2300000000001" as="sourcePoint" />
            <mxPoint x="340" y="50" as="targetPoint" />
          </mxGeometry>
        </mxCell>
        <mxCell id="l0MaPMt1qdS6hLQ1h6Lj-14" value="" style="endArrow=none;dashed=1;html=1;rounded=0;exitX=0.47;exitY=-0.002;exitDx=0;exitDy=0;fontSize=9;strokeWidth=0.5;strokeColor=#6c8ebf;fillColor=#dae8fc;exitPerimeter=0;" parent="1" edge="1">
          <mxGeometry width="50" height="50" relative="1" as="geometry">
            <mxPoint x="399.5" y="369.25" as="sourcePoint" />
            <mxPoint x="400" y="50" as="targetPoint" />
          </mxGeometry>
        </mxCell>
        <mxCell id="l0MaPMt1qdS6hLQ1h6Lj-16" value="&lt;span style=&quot;text-wrap: nowrap;&quot;&gt;Semana 2&lt;/span&gt;" style="text;html=1;align=center;verticalAlign=middle;whiteSpace=wrap;rounded=0;fontFamily=Comic Sans MS;fontSize=8;" parent="1" vertex="1">
          <mxGeometry x="378" y="364.25" width="47.5" height="20" as="geometry" />
        </mxCell>
        <mxCell id="l0MaPMt1qdS6hLQ1h6Lj-17" value="&lt;span style=&quot;text-wrap: nowrap;&quot;&gt;Semana 3&lt;/span&gt;" style="text;html=1;align=center;verticalAlign=middle;whiteSpace=wrap;rounded=0;fontFamily=Comic Sans MS;fontSize=8;" parent="1" vertex="1">
          <mxGeometry x="437" y="364.25" width="47.5" height="20" as="geometry" />
        </mxCell>
        <mxCell id="l0MaPMt1qdS6hLQ1h6Lj-18" value="" style="endArrow=none;dashed=1;html=1;rounded=0;exitX=0.47;exitY=-0.002;exitDx=0;exitDy=0;fontSize=9;strokeWidth=0.5;strokeColor=#6c8ebf;fillColor=#dae8fc;exitPerimeter=0;" parent="1" edge="1">
          <mxGeometry width="50" height="50" relative="1" as="geometry">
            <mxPoint x="460.00499999999994" y="369.25000000000006" as="sourcePoint" />
            <mxPoint x="460" y="50" as="targetPoint" />
          </mxGeometry>
        </mxCell>
        <mxCell id="l0MaPMt1qdS6hLQ1h6Lj-19" value="" style="endArrow=none;dashed=1;html=1;rounded=0;exitX=0.47;exitY=-0.002;exitDx=0;exitDy=0;fontSize=9;strokeWidth=0.5;strokeColor=#6c8ebf;fillColor=#dae8fc;exitPerimeter=0;" parent="1" edge="1">
          <mxGeometry width="50" height="50" relative="1" as="geometry">
            <mxPoint x="520.5" y="369.25" as="sourcePoint" />
            <mxPoint x="520" y="50" as="targetPoint" />
          </mxGeometry>
        </mxCell>
        <mxCell id="l0MaPMt1qdS6hLQ1h6Lj-20" value="&lt;span style=&quot;text-wrap: nowrap;&quot;&gt;Semana 4&lt;/span&gt;" style="text;html=1;align=center;verticalAlign=middle;whiteSpace=wrap;rounded=0;fontFamily=Comic Sans MS;fontSize=8;" parent="1" vertex="1">
          <mxGeometry x="498" y="364.25" width="47.5" height="20" as="geometry" />
        </mxCell>
        <mxCell id="l0MaPMt1qdS6hLQ1h6Lj-21" value="" style="endArrow=none;dashed=1;html=1;rounded=0;exitX=0.47;exitY=-0.002;exitDx=0;exitDy=0;fontSize=9;strokeWidth=0.5;strokeColor=#6c8ebf;fillColor=#dae8fc;exitPerimeter=0;" parent="1" edge="1">
          <mxGeometry width="50" height="50" relative="1" as="geometry">
            <mxPoint x="580.5" y="369.25" as="sourcePoint" />
            <mxPoint x="580" y="50" as="targetPoint" />
          </mxGeometry>
        </mxCell>
        <mxCell id="l0MaPMt1qdS6hLQ1h6Lj-22" value="&lt;span style=&quot;text-wrap: nowrap;&quot;&gt;Semana 5&lt;/span&gt;" style="text;html=1;align=center;verticalAlign=middle;whiteSpace=wrap;rounded=0;fontFamily=Comic Sans MS;fontSize=8;" parent="1" vertex="1">
          <mxGeometry x="558" y="364.25" width="47.5" height="20" as="geometry" />
        </mxCell>
        <mxCell id="l0MaPMt1qdS6hLQ1h6Lj-23" value="(Laís da Silva)" style="text;html=1;align=center;verticalAlign=middle;whiteSpace=wrap;rounded=0;fontSize=7;fontFamily=Comic Sans MS;fontColor=#FF0000;" parent="1" vertex="1">
          <mxGeometry x="210.5" y="134.5" width="70" height="12.5" as="geometry" />
        </mxCell>
        <mxCell id="l0MaPMt1qdS6hLQ1h6Lj-24" value="(Joaquim Cláudio)" style="text;html=1;align=center;verticalAlign=middle;whiteSpace=wrap;rounded=0;fontSize=7;fontFamily=Comic Sans MS;fontColor=#FF0000;" parent="1" vertex="1">
          <mxGeometry x="205" y="165.5" width="70" height="12.5" as="geometry" />
        </mxCell>
        <mxCell id="l0MaPMt1qdS6hLQ1h6Lj-25" value="(Edja Silva &amp;amp; Joaquim Cláudio)" style="text;html=1;align=center;verticalAlign=middle;whiteSpace=wrap;rounded=0;fontSize=7;fontFamily=Comic Sans MS;fontColor=#FF0000;" parent="1" vertex="1">
          <mxGeometry x="155" y="197" width="126.5" height="12.5" as="geometry" />
        </mxCell>
        <mxCell id="l0MaPMt1qdS6hLQ1h6Lj-26" value="(Joaquim Cláudio)" style="text;html=1;align=center;verticalAlign=middle;whiteSpace=wrap;rounded=0;fontSize=7;fontFamily=Comic Sans MS;fontColor=#FF0000;" parent="1" vertex="1">
          <mxGeometry x="204" y="226.5" width="70" height="12.5" as="geometry" />
        </mxCell>
        <mxCell id="l0MaPMt1qdS6hLQ1h6Lj-27" value="(Edja da Silva)" style="text;html=1;align=center;verticalAlign=middle;whiteSpace=wrap;rounded=0;fontSize=7;fontFamily=Comic Sans MS;fontColor=#FF0000;" parent="1" vertex="1">
          <mxGeometry x="209" y="256.5" width="70" height="12.5" as="geometry" />
        </mxCell>
        <mxCell id="l0MaPMt1qdS6hLQ1h6Lj-28" value="(Joaquim Cláudio)" style="text;html=1;align=center;verticalAlign=middle;whiteSpace=wrap;rounded=0;fontSize=7;fontFamily=Comic Sans MS;fontColor=#FF0000;" parent="1" vertex="1">
          <mxGeometry x="204" y="285.5" width="70" height="12.5" as="geometry" />
        </mxCell>
        <mxCell id="l0MaPMt1qdS6hLQ1h6Lj-29" value="(Edja da Silva)" style="text;html=1;align=center;verticalAlign=middle;whiteSpace=wrap;rounded=0;fontSize=7;fontFamily=Comic Sans MS;fontColor=#FF0000;" parent="1" vertex="1">
          <mxGeometry x="209" y="347" width="70" height="12.5" as="geometry" />
        </mxCell>
        <mxCell id="l0MaPMt1qdS6hLQ1h6Lj-30" value="(Laís da Silva)" style="text;html=1;align=center;verticalAlign=middle;whiteSpace=wrap;rounded=0;fontSize=7;fontFamily=Comic Sans MS;fontColor=#FF0000;" parent="1" vertex="1">
          <mxGeometry x="211" y="315.5" width="70" height="12.5" as="geometry" />
        </mxCell>
        <mxCell id="l0MaPMt1qdS6hLQ1h6Lj-33" value="" style="rounded=1;whiteSpace=wrap;html=1;arcSize=1;fillColor=#6C8EBF;strokeColor=#6C8EBF;" parent="1" vertex="1">
          <mxGeometry x="280.5" y="270" width="179.5" height="25" as="geometry" />
        </mxCell>
        <mxCell id="l0MaPMt1qdS6hLQ1h6Lj-34" value="" style="rounded=1;whiteSpace=wrap;html=1;arcSize=1;fillColor=#CC0066;strokeColor=none;" parent="1" vertex="1">
          <mxGeometry x="290" y="330" width="70" height="25" as="geometry" />
        </mxCell>
        <mxCell id="l0MaPMt1qdS6hLQ1h6Lj-35" value="" style="rounded=1;whiteSpace=wrap;html=1;arcSize=1;fillColor=#82B366;strokeColor=#82b366;" parent="1" vertex="1">
          <mxGeometry x="290" y="300" width="50" height="25" as="geometry" />
        </mxCell>
        <mxCell id="l0MaPMt1qdS6hLQ1h6Lj-36" value="" style="rounded=1;whiteSpace=wrap;html=1;arcSize=1;fillColor=#82B366;strokeColor=#82b366;" parent="1" vertex="1">
          <mxGeometry x="540" y="120.5" width="30" height="25" as="geometry" />
        </mxCell>
        <mxCell id="l0MaPMt1qdS6hLQ1h6Lj-37" value="" style="rounded=1;whiteSpace=wrap;html=1;arcSize=1;fillColor=#CC0066;strokeColor=#CC0066;" parent="1" vertex="1">
          <mxGeometry x="360" y="240" width="60" height="25" as="geometry" />
        </mxCell>
        <mxCell id="l0MaPMt1qdS6hLQ1h6Lj-38" value="" style="rounded=1;whiteSpace=wrap;html=1;arcSize=1;fillColor=#6C8EBF;strokeColor=#6C8EBF;" parent="1" vertex="1">
          <mxGeometry x="460" y="209.5" width="40" height="25" as="geometry" />
        </mxCell>
        <mxCell id="l0MaPMt1qdS6hLQ1h6Lj-40" value="" style="rounded=1;whiteSpace=wrap;html=1;arcSize=1;fillColor=#6C8EBF;strokeColor=#6C8EBF;" parent="1" vertex="1">
          <mxGeometry x="540" y="150" width="30" height="25" as="geometry" />
        </mxCell>
        <mxCell id="l0MaPMt1qdS6hLQ1h6Lj-42" value="" style="rounded=1;whiteSpace=wrap;html=1;arcSize=1;fillColor=#CC0066;strokeColor=#CC0066;" parent="1" vertex="1">
          <mxGeometry x="420" y="180" width="100" height="25" as="geometry" />
        </mxCell>
        <mxCell id="l0MaPMt1qdS6hLQ1h6Lj-43" value="&lt;span style=&quot;font-size: 9px; text-wrap: nowrap;&quot;&gt;Relatório (Proposta)&lt;/span&gt;" style="text;html=1;align=center;verticalAlign=middle;whiteSpace=wrap;rounded=0;fontFamily=Comic Sans MS;" parent="1" vertex="1">
          <mxGeometry x="183" y="88.5" width="90" height="20" as="geometry" />
        </mxCell>
        <mxCell id="l0MaPMt1qdS6hLQ1h6Lj-44" value="(Laís da Silva)" style="text;html=1;align=center;verticalAlign=middle;whiteSpace=wrap;rounded=0;fontSize=7;fontFamily=Comic Sans MS;fontColor=#FF0000;" parent="1" vertex="1">
          <mxGeometry x="210.5" y="105.5" width="70" height="12.5" as="geometry" />
        </mxCell>
        <mxCell id="l0MaPMt1qdS6hLQ1h6Lj-45" value="" style="rounded=1;whiteSpace=wrap;html=1;arcSize=1;fillColor=#82B366;strokeColor=#82b366;" parent="1" vertex="1">
          <mxGeometry x="340" y="90.5" width="120" height="25" as="geometry" />
        </mxCell>
        <mxCell id="l0MaPMt1qdS6hLQ1h6Lj-39" value="" style="rounded=1;whiteSpace=wrap;html=1;arcSize=1;fillColor=#6C8EBF;strokeColor=#6C8EBF;" parent="1" vertex="1">
          <mxGeometry x="500" y="180" width="18" height="25" as="geometry" />
        </mxCell>
        <mxCell id="l0MaPMt1qdS6hLQ1h6Lj-46" value="&lt;span style=&quot;text-wrap: nowrap;&quot;&gt;Tarefas&lt;/span&gt;" style="text;html=1;align=center;verticalAlign=middle;whiteSpace=wrap;rounded=0;fontFamily=Comic Sans MS;fontStyle=1;fontSize=14;" parent="1" vertex="1">
          <mxGeometry x="235" y="29" width="90" height="20" as="geometry" />
        </mxCell>
        <mxCell id="l0MaPMt1qdS6hLQ1h6Lj-47" value="&lt;span style=&quot;text-wrap: nowrap;&quot;&gt;Semanas&lt;/span&gt;" style="text;html=1;align=center;verticalAlign=middle;whiteSpace=wrap;rounded=0;fontFamily=Comic Sans MS;fontStyle=1;fontSize=14;" parent="1" vertex="1">
          <mxGeometry x="630" y="347" width="90" height="20" as="geometry" />
        </mxCell>
        <mxCell id="l0MaPMt1qdS6hLQ1h6Lj-48" value="" style="rounded=1;whiteSpace=wrap;html=1;arcSize=1;fillColor=#CC0066;strokeColor=#CC0066;" parent="1" vertex="1">
          <mxGeometry x="520" y="239" width="30" height="25" as="geometry" />
        </mxCell>
        <mxCell id="l0MaPMt1qdS6hLQ1h6Lj-58" value="" style="group" parent="1" vertex="1" connectable="0">
          <mxGeometry x="263" y="420" width="97" height="21" as="geometry" />
        </mxCell>
        <mxCell id="l0MaPMt1qdS6hLQ1h6Lj-49" value="" style="rounded=1;whiteSpace=wrap;html=1;arcSize=1;fillColor=#CC0066;strokeColor=#CC0066;" parent="l0MaPMt1qdS6hLQ1h6Lj-58" vertex="1">
          <mxGeometry y="1" width="21" height="20" as="geometry" />
        </mxCell>
        <mxCell id="l0MaPMt1qdS6hLQ1h6Lj-50" value="Edja da Silva" style="text;html=1;align=center;verticalAlign=middle;resizable=0;points=[];autosize=1;strokeColor=none;fillColor=none;fontSize=9;fontFamily=Comic Sans MS;" parent="l0MaPMt1qdS6hLQ1h6Lj-58" vertex="1">
          <mxGeometry x="17" width="80" height="20" as="geometry" />
        </mxCell>
        <mxCell id="l0MaPMt1qdS6hLQ1h6Lj-59" value="" style="group" parent="1" vertex="1" connectable="0">
          <mxGeometry x="401" y="420" width="108" height="21" as="geometry" />
        </mxCell>
        <mxCell id="l0MaPMt1qdS6hLQ1h6Lj-51" value="" style="rounded=1;whiteSpace=wrap;html=1;arcSize=1;fillColor=#6C8EBF;strokeColor=#6C8EBF;" parent="l0MaPMt1qdS6hLQ1h6Lj-59" vertex="1">
          <mxGeometry y="1" width="21" height="20" as="geometry" />
        </mxCell>
        <mxCell id="l0MaPMt1qdS6hLQ1h6Lj-52" value="Joaquim Cláudio" style="text;html=1;align=center;verticalAlign=middle;resizable=0;points=[];autosize=1;strokeColor=none;fillColor=none;fontSize=9;fontFamily=Comic Sans MS;" parent="l0MaPMt1qdS6hLQ1h6Lj-59" vertex="1">
          <mxGeometry x="18" width="90" height="20" as="geometry" />
        </mxCell>
        <mxCell id="l0MaPMt1qdS6hLQ1h6Lj-60" value="" style="group" parent="1" vertex="1" connectable="0">
          <mxGeometry x="545.5" y="420" width="97" height="21" as="geometry" />
        </mxCell>
        <mxCell id="l0MaPMt1qdS6hLQ1h6Lj-56" value="" style="rounded=1;whiteSpace=wrap;html=1;arcSize=1;fillColor=#82B366;strokeColor=#82B366;" parent="l0MaPMt1qdS6hLQ1h6Lj-60" vertex="1">
          <mxGeometry y="1" width="21" height="20" as="geometry" />
        </mxCell>
        <mxCell id="l0MaPMt1qdS6hLQ1h6Lj-57" value="Laís Ferreira" style="text;html=1;align=center;verticalAlign=middle;resizable=0;points=[];autosize=1;strokeColor=none;fillColor=none;fontSize=9;fontFamily=Comic Sans MS;" parent="l0MaPMt1qdS6hLQ1h6Lj-60" vertex="1">
          <mxGeometry x="17" width="80" height="20" as="geometry" />
        </mxCell>
        <mxCell id="PBjhANovOYgx3Hn_GKAz-1" value="" style="rounded=1;whiteSpace=wrap;html=1;arcSize=1;fillColor=#6C8EBF;strokeColor=#6C8EBF;" vertex="1" parent="1">
          <mxGeometry x="520" y="90.5" width="50" height="25" as="geometry" />
        </mxCell>
        <mxCell id="PBjhANovOYgx3Hn_GKAz-2" value="" style="rounded=1;whiteSpace=wrap;html=1;arcSize=1;fillColor=#CC0066;strokeColor=#CC0066;" vertex="1" parent="1">
          <mxGeometry x="460" y="90.5" width="60" height="25" as="geometry" />
        </mxCell>
      </root>
    </mxGraphModel>
  </diagram>
</mxfile>
